# File created by Blade
# Date/Time:  Tue Jan 27 19:32:37 2015
# Frame Rate: 120.000 fps
#------------------------------------------------------
:FULLY-SPECIFIED
:DEGREES
2867
root 3.308597 32.215462 0.168300 -5.535769 -1.273132 -0.250731
Spine 1.879614 -7.734187 -0.789398
Head 27.285785 -36.081740 -10.767070
LeftShoulder -7.061792 -4.287942 27.503482
LeftArm 0.064943 39.994748 -100.432875
LeftForeArm 3.067699 -0.000000 12.438661
LeftHand 10.201862 -0.000000 -4.230018
LeftHandThumb1 -26.253704 0.000000 33.147579
RightShoulder -24.300276 -19.095564 -27.179551
RightArm -5.810292 70.306920 57.787929
RightForeArm 2.239185 -0.000000 150.954504
RightHand 30.181264 -0.000000 -30.794735
RightHandThumb1 -24.326973 -0.000000 -32.862282
LeftUpLeg 13.280066 4.326827 0.084829
LeftLeg 1.837323 -0.000000 -0.000000
LeftFoot -21.100002 16.803852 -23.385009
LeftToeBase 16.649026 -0.000000 -0.000000
RightUpLeg 10.880285 -6.834757 2.223240
RightLeg 1.774981 -0.000000 -0.000000
RightFoot -14.159737 -13.737827 14.388099
RightToeBase 11.534676 -0.000000 -0.000000
2868
root 3.306057 32.215634 0.169070 -5.522436 -1.279735 -0.250218
Spine 1.858287 -7.699427 -0.793538
Head 27.332038 -36.133710 -10.786541
LeftShoulder -7.045252 -4.284873 27.486769
LeftArm 0.066650 39.833634 -100.418217
LeftForeArm 3.060911 -0.000000 12.485638
LeftHand 10.234461 -0.000000 -4.270648
LeftHandThumb1 -26.253704 0.000000 33.147579
RightShoulder -24.293576 -19.101567 -27.152270
RightArm -5.812199 70.284571 57.837171
RightForeArm 2.756650 -0.000000 150.591562
RightHand 30.049298 -0.000000 -30.933847
RightHandThumb1 -24.326973 -0.000000 -32.862282
LeftUpLeg 13.272687 4.296822 0.083292
LeftLeg 1.828634 -0.000000 -0.000000
LeftFoot -21.131493 16.836491 -23.473928
LeftToeBase 16.645095 -0.000000 -0.000000
RightUpLeg 10.868009 -6.821392 2.230443
RightLeg 1.774734 -0.000000 -0.000000
RightFoot -14.158935 -13.748195 14.370359
RightToeBase 11.494173 -0.000000 -0.000000
2869
root 3.302746 32.215763 0.170248 -5.515751 -1.289028 -0.250405
Spine 1.849934 -7.675004 -0.799539
Head 27.350801 -36.167207 -10.792900
LeftShoulder -7.053835 -4.255454 27.471811
LeftArm 0.104906 39.741915 -100.382571
LeftForeArm 3.037801 -0.000000 12.516794
LeftHand 10.260338 -0.000000 -4.246903
LeftHandThumb1 -26.253704 0.000000 33.147579
RightShoulder -24.272681 -19.079290 -27.128768
RightArm -5.894221 70.254273 57.817289
RightForeArm 3.078830 -0.000000 150.183677
RightHand 29.975017 -0.000000 -31.140371
RightHandThumb1 -24.326973 -0.000000 -32.862282
LeftUpLeg 13.271337 4.284764 0.087026
LeftLeg 1.824304 -0.000000 -0.000000
LeftFoot -21.183556 16.822821 -23.573940
LeftToeBase 16.763390 -0.000000 -0.000000
RightUpLeg 10.859936 -6.815847 2.236881
RightLeg 1.780018 -0.000000 -0.000000
RightFoot -14.159341 -13.743774 14.371178
RightToeBase 11.505775 -0.000000 -0.000000
2870
root 3.299930 32.215921 0.170906 -5.501050 -1.290370 -0.249861
Spine 1.827433 -7.660384 -0.804095
Head 27.392162 -36.212747 -10.828894
LeftShoulder -7.050249 -4.244284 27.461184
LeftArm 0.121308 39.695923 -100.364169
LeftForeArm 3.002063 0.000000 12.532960
LeftHand 10.323170 0.000000 -4.234550
LeftHandThumb1 -26.253704 0.000000 33.147579
RightShoulder -24.254601 -19.036248 -27.097430
RightArm -5.996995 70.266798 57.737072
RightForeArm 3.298869 -0.000000 149.754331
RightHand 29.892747 -0.000000 -31.291532
RightHandThumb1 -24.326973 -0.000000 -32.862282
LeftUpLeg 13.255056 4.281372 0.090329
LeftLeg 1.830256 -0.000000 -0.000000
LeftFoot -21.160906 16.834008 -23.537204
LeftToeBase 16.718024 -0.000000 -0.000000
RightUpLeg 10.849970 -6.805074 2.245678
RightLeg 1.774213 -0.000000 -0.000000
RightFoot -14.155685 -13.733290 14.370471
RightToeBase 11.773501 -0.000000 -0.000000
2871
root 3.298167 32.216116 0.172348 -5.493923 -1.301395 -0.247669
Spine 1.813536 -7.625209 -0.806197
Head 27.427282 -36.261701 -10.861796
LeftShoulder -7.023247 -4.275498 27.454253
LeftArm 0.091033 39.631822 -100.386504
LeftForeArm 2.932512 0.000000 12.538584
LeftHand 10.312618 -0.000000 -4.221982
LeftHandThumb1 -26.253704 0.000000 33.147579
RightShoulder -24.244669 -19.008244 -27.075140
RightArm -6.106995 70.263896 57.693634
RightForeArm 3.373975 0.000000 149.305857
RightHand 29.795279 -0.000000 -31.268894
RightHandThumb1 -24.326973 -0.000000 -32.862282
LeftUpLeg 13.254370 4.304676 0.092354
LeftLeg 1.827613 -0.000000 -0.000000
LeftFoot -21.100703 16.813296 -23.439528
LeftToeBase 16.567731 -0.000000 -0.000000
RightUpLeg 10.843931 -6.785400 2.250267
RightLeg 1.772295 -0.000000 -0.000000
RightFoot -14.153399 -13.766909 14.362825
RightToeBase 11.492352 -0.000000 -0.000000
2872
root 3.295360 32.216168 0.173329 -5.482097 -1.310189 -0.244506
Spine 1.792642 -7.586398 -0.813574
Head 27.459847 -36.327265 -10.903791
LeftShoulder -6.999196 -4.292843 27.452842
LeftArm 0.088072 39.636981 -100.380629
LeftForeArm 2.879732 -0.000000 12.546982
LeftHand 10.298576 -0.000000 -4.257251
LeftHandThumb1 -26.253704 0.000000 33.147579
RightShoulder -24.241861 -18.974403 -27.046642
RightArm -6.281801 70.278769 57.592953
RightForeArm 3.294561 -0.000000 148.842891
RightHand 29.682064 0.000000 -31.318067
RightHandThumb1 -24.326973 -0.000000 -32.862282
LeftUpLeg 13.245928 4.308369 0.096935
LeftLeg 1.827811 -0.000000 -0.000000
LeftFoot -21.140037 16.799792 -23.580761
LeftToeBase 16.604736 -0.000000 -0.000000
RightUpLeg 10.831849 -6.761557 2.257565
RightLeg 1.772098 -0.000000 -0.000000
RightFoot -14.165189 -13.785070 14.360907
RightToeBase 11.536593 -0.000000 -0.000000
2873
root 3.293384 32.216359 0.175077 -5.476223 -1.318441 -0.243487
Spine 1.781353 -7.579308 -0.814456
Head 27.473667 -36.360328 -10.939998
LeftShoulder -7.002001 -4.307830 27.450097
LeftArm 0.067552 39.687177 -100.383765
LeftForeArm 2.855608 0.000000 12.554543
LeftHand 10.325810 -0.000000 -4.263689
LeftHandThumb1 -26.253704 0.000000 33.147579
RightShoulder -24.226144 -18.972018 -27.037932
RightArm -6.443408 70.200992 57.528519
RightForeArm 3.018152 -0.000000 148.324273
RightHand 29.588069 -0.000000 -31.374912
RightHandThumb1 -24.326973 -0.000000 -32.862282
LeftUpLeg 13.245226 4.311401 0.100072
LeftLeg 1.823442 -0.000000 -0.000000
LeftFoot -21.168260 16.820513 -23.583499
LeftToeBase 16.764763 -0.000000 -0.000000
RightUpLeg 10.831868 -6.748846 2.262946
RightLeg 1.765491 -0.000000 -0.000000
RightFoot -14.156080 -13.799488 14.338979
RightToeBase 11.498783 -0.000000 -0.000000
2874
root 3.291711 32.216556 0.176872 -5.467482 -1.323544 -0.239269
Spine 1.763437 -7.550740 -0.818134
Head 27.495740 -36.424133 -10.981387
LeftShoulder -6.978020 -4.304857 27.446756
LeftArm 0.103179 39.729029 -100.366535
LeftForeArm 2.868159 -0.000000 12.526353
LeftHand 10.278601 0.000000 -4.285918
LeftHandThumb1 -26.253704 0.000000 33.147579
RightShoulder -24.202758 -18.948775 -27.029540
RightArm -6.754148 70.123967 57.302884
RightForeArm 2.525151 -0.000000 147.754743
RightHand 29.400431 -0.000000 -31.679389
RightHandThumb1 -24.326973 -0.000000 -32.862282
LeftUpLeg 13.246097 4.323292 0.099761
LeftLeg 1.814076 -0.000000 -0.000000
LeftFoot -21.141015 16.821075 -23.551258
LeftToeBase 16.733320 -0.000000 -0.000000
RightUpLeg 10.830387 -6.750675 2.260326
RightLeg 1.757004 -0.000000 -0.000000
RightFoot -14.157405 -13.770127 14.378748
RightToeBase 11.524726 -0.000000 -0.000000
2875
root 3.289587 32.216397 0.178231 -5.460624 -1.325322 -0.242191
Spine 1.758514 -7.532707 -0.826912
Head 27.485306 -36.493894 -10.971082
LeftShoulder -6.967470 -4.327030 27.465882
LeftArm 0.103559 39.757727 -100.379734
LeftForeArm 2.929622 -0.000000 12.498113
LeftHand 10.301260 -0.000000 -4.345462
LeftHandThumb1 -26.253704 0.000000 33.147579
RightShoulder -24.207808 -18.842449 -27.022449
RightArm -7.110475 69.980352 57.001566
RightForeArm 1.932607 -0.000000 147.092510
RightHand 29.161092 -0.000000 -31.782637
RightHandThumb1 -24.326973 -0.000000 -32.862282
LeftUpLeg 13.244200 4.315866 0.105267
LeftLeg 1.807668 -0.000000 -0.000000
LeftFoot -21.160039 16.808011 -23.596645
LeftToeBase 16.749788 -0.000000 -0.000000
RightUpLeg 10.829073 -6.741990 2.268636
RightLeg 1.750227 -0.000000 -0.000000
RightFoot -14.152747 -13.781301 14.364765
RightToeBase 11.509869 -0.000000 -0.000000
2876
root 3.287693 32.216340 0.179726 -5.448790 -1.327372 -0.242006
Spine 1.744124 -7.522422 -0.825805
Head 27.472895 -36.557845 -10.997225
LeftShoulder -6.964118 -4.331741 27.460473
LeftArm 0.124377 39.821767 -100.353765
LeftForeArm 2.992898 -0.000000 12.470436
LeftHand 10.346992 0.000000 -4.448686
LeftHandThumb1 -26.253704 0.000000 33.147579
RightShoulder -24.179221 -18.914917 -26.965480
RightArm -7.210647 70.021418 56.963443
RightForeArm 1.545174 -0.000000 146.358237
RightHand 29.065723 -0.000000 -31.786426
RightHandThumb1 -24.326973 -0.000000 -32.862282
LeftUpLeg 13.233921 4.325252 0.109014
LeftLeg 1.811408 -0.000000 -0.000000
LeftFoot -21.147007 16.814477 -23.568000
LeftToeBase 16.718068 -0.000000 -0.000000
RightUpLeg 10.820915 -6.729564 2.276788
RightLeg 1.746990 -0.000000 -0.000000
RightFoot -14.162245 -13.797323 14.360872
RightToeBase 11.560398 -0.000000 -0.000000
2877
root 3.286010 32.216517 0.181037 -5.436641 -1.328649 -0.244186
Spine 1.731084 -7.517031 -0.825618
Head 27.458423 -36.623456 -11.008023
LeftShoulder -6.952659 -4.357644 27.459134
LeftArm 0.108723 39.886224 -100.361090
LeftForeArm 2.999228 0.000000 12.442363
LeftHand 10.300997 -0.000000 -4.388659
LeftHandThumb1 -26.253704 0.000000 33.147579
RightShoulder -24.131883 -18.988800 -26.912169
RightArm -7.389428 70.074830 56.858352
RightForeArm 1.222582 -0.000000 145.508899
RightHand 28.975119 -0.000000 -31.816592
RightHandThumb1 -24.326973 -0.000000 -32.862282
LeftUpLeg 13.226318 4.329799 0.115132
LeftLeg 1.808024 -0.000000 -0.000000
LeftFoot -21.124013 16.824078 -23.531730
LeftToeBase 16.685803 -0.000000 -0.000000
RightUpLeg 10.817412 -6.723104 2.282822
RightLeg 1.736734 -0.000000 -0.000000
RightFoot -14.158192 -13.791203 14.362365
RightToeBase 11.536922 -0.000000 -0.000000
2878
root 3.285397 32.216325 0.183090 -5.433524 -1.327242 -0.235356
Spine 1.733063 -7.517696 -0.839567
Head 27.418772 -36.687509 -10.999715
LeftShoulder -6.947452 -4.352277 27.459333
LeftArm 0.137068 39.890998 -100.346997
LeftForeArm 3.034494 -0.000000 12.396968
LeftHand 10.282242 -0.000000 -4.415049
LeftHandThumb1 -26.253704 0.000000 33.147579
RightShoulder -24.077500 -19.028434 -26.880474
RightArm -7.679323 70.131471 56.648647
RightForeArm 0.972483 -0.000000 144.566961
RightHand 28.742508 -0.000000 -31.819805
RightHandThumb1 -24.326973 -0.000000 -32.862282
LeftUpLeg 13.226960 4.328154 0.107388
LeftLeg 1.807961 -0.000000 -0.000000
LeftFoot -21.144375 16.797783 -23.579856
LeftToeBase 16.736959 -0.000000 -0.000000
RightUpLeg 10.827426 -6.711066 2.278867
RightLeg 1.716167 -0.000000 -0.000000
RightFoot -14.149428 -13.815005 14.345640
RightToeBase 11.506261 -0.000000 -0.000000
2879
root 3.284423 32.215705 0.185310 -5.418728 -1.324907 -0.236325
Spine 1.722397 -7.497917 -0.848465
Head 27.383660 -36.780486 -10.962014
LeftShoulder -6.925127 -4.360853 27.469597
LeftArm 0.146494 39.910120 -100.344700
LeftForeArm 3.020815 0.000000 12.361498
LeftHand 10.312526 -0.000000 -4.442602
LeftHandThumb1 -26.253704 0.000000 33.147579
RightShoulder -24.037586 -18.784764 -26.971094
RightArm -8.570355 69.899295 55.836844
RightForeArm 0.897458 -0.000000 143.495774
RightHand 28.563521 -0.000000 -32.010848
RightHandThumb1 -24.326973 -0.000000 -32.862282
LeftUpLeg 13.221563 4.317061 0.105947
LeftLeg 1.795474 -0.000000 -0.000000
LeftFoot -21.152645 16.813316 -23.589324
LeftToeBase 16.742911 -0.000000 -0.000000
RightUpLeg 10.819690 -6.707263 2.284229
RightLeg 1.710684 -0.000000 -0.000000
RightFoot -14.157508 -13.821477 14.338285
RightToeBase 11.545697 -0.000000 -0.000000
